Coordinates
version=1
nRows=31
nColumns=33
inDegrees=yes

Units are S.I. units (second, meters, Newtons, ...)
Angles are in degrees.

endheader
time	ground_thorax_rot_x	ground_thorax_rot_y	ground_thorax_rot_z	ground_thorax_tx	ground_thorax_ty	ground_thorax_tz	clav_prot_r	clav_elev_r	scapula_abduction_r	scapula_elevation_r	scapula_upward_rot_r	scapula_winging_r	shoulder_elv_r	plane_of_elev_r	axial_rot_r	elbow_flexion_r	pro_sup_r	wrist_flex_r	wrist_dev_r	clav_prot_l	clav_elev_l	scapula_abduction_l	scapula_elevation_l	scapula_upward_rot_l	scapula_winging_l	shoulder_elv_l	plane_of_elev_l	axial_rot_l	elbow_flexion_l	pro_sup_l	wrist_flex_l	wrist_dev_l	
4.9900	-90.000000	90.000000	-90.000000	-247.866755	833.299606	9.746884	25.799041	40.171806	45.000000	45.000000	16.048701	3223.402927	-1700.022410	26.100995	-163.880667	738.107232	66.828752	17.111540	2.753103	-45.000000	1.331685	33.369663	-11.742575	-45.000000	-3853.498218	1197.521945	10.332109	-151.917769	1805.884197	24.351910	11.270941	-23.803841	
5.0000	-90.000000	90.000000	-90.000000	-247.759919	832.687883	9.566015	25.783398	40.547064	45.000000	45.000000	16.166026	3223.409281	-1699.523944	26.284364	-157.414672	740.419543	95.303847	15.677237	3.461136	-45.000000	1.684188	33.486341	-11.922602	-45.000000	-3853.591370	1197.735318	10.661798	-154.904686	1806.312406	20.713245	10.689497	-23.142878	
5.0100	-90.000000	90.000000	-90.000000	-247.609383	832.085700	9.384699	25.751199	40.873659	45.000000	45.000000	16.247083	3223.413088	-1698.983635	26.482105	-150.611734	742.845190	125.114441	14.284186	4.202382	-45.000000	1.975246	33.576789	-12.084864	-45.000000	-3853.607836	1197.939839	11.054472	-158.035726	1806.742439	16.857556	10.054381	-22.418724	
5.0200	-90.000000	90.000000	-90.000000	-247.342328	831.496346	9.198592	25.758918	41.068429	45.000000	45.000000	16.300064	3223.435773	-1698.683053	26.579031	-146.940918	744.175557	141.406522	13.467919	4.625479	-45.000000	2.244988	33.694995	-12.256410	-45.000000	-3853.638194	1197.974827	11.248272	-159.606019	1806.999345	15.238167	9.590807	-22.105828	
5.0300	-90.000000	90.000000	-90.000000	-246.980716	830.929478	9.011174	25.786416	41.175422	45.000000	45.000000	16.329879	3223.473068	-1698.517830	26.618312	-144.936046	744.922587	150.548818	12.982392	4.886894	-45.000000	2.484760	33.830797	-12.435272	-45.000000	-3853.671313	1197.912523	11.344204	-160.351432	1807.159650	14.811381	9.209532	-22.002410	
5.0400	-90.000000	90.000000	-90.000000	-246.538659	830.395168	8.824861	25.829803	41.204739	45.000000	45.000000	16.319997	3223.519926	-1698.450349	26.615997	-144.316395	745.181788	153.744055	12.783216	5.004049	-45.000000	2.700923	33.979298	-12.620966	-45.000000	-3853.709554	1197.770157	11.359891	-160.407955	1807.245475	15.377631	8.891292	-22.070827	
5.0500	-90.000000	90.000000	-90.000000	-246.054137	829.904345	8.643344	25.884146	41.197227	45.000000	45.000000	16.300118	3223.580497	-1698.449655	26.586011	-144.349509	745.214812	154.267839	12.707103	5.062618	-45.000000	2.906376	34.136359	-12.810128	-45.000000	-3853.769677	1197.598732	11.328012	-160.162859	1807.301967	16.399106	8.609960	-22.213954	
5.0600	-90.000000	90.000000	-90.000000	-245.570574	829.466865	8.470039	25.938583	41.179784	45.000000	45.000000	16.249728	3223.643179	-1698.439796	26.560953	-144.397034	745.242041	154.833460	12.646964	5.110290	-45.000000	3.106449	34.285703	-12.996216	-45.000000	-3853.837971	1197.433912	11.295890	-159.930906	1807.367236	17.417655	8.329001	-22.347141	
5.0700	-90.000000	90.000000	-90.000000	-245.121324	829.089869	8.307112	25.997900	41.161679	45.000000	45.000000	16.207201	3223.715902	-1698.454574	26.527527	-144.485893	745.263171	155.427231	12.572622	5.156689	-45.000000	3.305493	34.422682	-13.178139	-45.000000	-3853.925642	1197.282208	11.253959	-159.723760	1807.443902	18.422910	8.068505	-22.474301	
5.0800	-90.000000	90.000000	-90.000000	-244.727627	828.777349	8.155946	26.054887	41.143338	45.000000	45.000000	16.139842	3223.784675	-1698.454435	26.502552	-144.598513	745.281399	156.026600	12.502532	5.184756	-45.000000	3.493352	34.534141	-13.348317	-45.000000	-3854.005846	1197.139153	11.220311	-159.542964	1807.530405	19.393101	7.824819	-22.591507	
5.0900	-90.000000	90.000000	-90.000000	-244.398626	828.529828	8.017780	26.112645	41.119486	45.000000	45.000000	16.090349	3223.858640	-1698.479987	26.468709	-144.757103	745.299650	156.623557	12.423915	5.211257	-45.000000	3.661069	34.622196	-13.504492	-45.000000	-3854.077723	1197.006818	11.194923	-159.400951	1807.618906	20.307063	7.610069	-22.697101	
5.1000	-90.000000	90.000000	-90.000000	-244.132778	828.344138	7.894273	26.163822	41.103659	45.000000	45.000000	16.015346	3223.917763	-1698.482987	26.447080	-144.941824	745.317468	157.203273	12.348635	5.220144	-45.000000	3.807232	34.691734	-13.644348	-45.000000	-3854.132421	1196.886442	11.187678	-159.299496	1807.703360	21.138588	7.421233	-22.788029	
5.1100	-90.000000	90.000000	-90.000000	-243.920285	828.213688	7.787781	26.213589	41.083442	45.000000	45.000000	15.958569	3223.970005	-1698.507105	26.418229	-145.171660	745.334329	157.769213	12.271022	5.228384	-45.000000	3.928593	34.747169	-13.763265	-45.000000	-3854.174889	1196.783804	11.188875	-159.240952	1807.781879	21.869161	7.262628	-22.863274	
5.1200	-90.000000	90.000000	-90.000000	-243.746086	828.129238	7.701836	26.257206	41.070345	45.000000	45.000000	15.891445	3224.003833	-1698.518816	26.393826	-145.430841	745.350787	158.317225	12.198126	5.227551	-45.000000	4.025978	34.795048	-13.862667	-45.000000	-3854.205151	1196.697707	11.202186	-159.216199	1807.858274	22.480894	7.130403	-22.922890	
5.1300	-90.000000	90.000000	-90.000000	-243.592278	828.080099	7.640758	26.300380	41.050480	45.000000	45.000000	15.852266	3224.024653	-1698.557815	26.358879	-145.732002	745.363284	158.854039	12.126270	5.232427	-45.000000	4.105037	34.830232	-13.926832	-45.000000	-3854.222250	1196.638978	11.205459	-159.218873	1807.930844	22.966130	7.027118	-22.967474	
5.1400	-90.000000	90.000000	-90.000000	-243.439311	828.055588	7.609482	26.338719	41.037149	45.000000	45.000000	15.808238	3224.025745	-1698.589245	26.322223	-146.057869	745.374148	159.382551	12.060198	5.233458	-45.000000	4.161376	34.860730	-13.970342	-45.000000	-3854.230089	1196.595261	11.213506	-159.231811	1808.004535	23.320735	6.948238	-22.998606	
5.1500	-90.000000	90.000000	-90.000000	-243.267738	828.046174	7.612405	26.377369	41.019064	45.000000	45.000000	15.783230	3224.008182	-1698.640906	26.278440	-146.414342	745.383721	159.915913	11.995899	5.239703	-45.000000	4.196289	34.881477	-13.991785	-45.000000	-3854.228655	1196.562674	11.215495	-159.242807	1808.074987	23.552311	6.893496	-23.017095	
5.1600	-90.000000	90.000000	-90.000000	-243.058385	828.044411	7.652923	26.414072	41.003362	45.000000	45.000000	15.758777	3223.978774	-1698.691439	26.223536	-146.790359	745.393257	160.460896	11.934055	5.247146	-45.000000	4.205518	34.903984	-14.011489	-45.000000	-3854.225712	1196.528648	11.230647	-159.231770	1808.154940	23.667233	6.858626	-23.026716	
5.1700	-90.000000	90.000000	-90.000000	-242.792922	828.045001	7.732153	26.451701	40.987123	45.000000	45.000000	15.734464	3223.925338	-1698.747356	26.171736	-147.181104	745.402979	161.029057	11.872414	5.255447	-45.000000	4.198561	34.917549	-14.016774	-45.000000	-3854.214540	1196.496563	11.235497	-159.193031	1808.224302	23.679511	6.846533	-23.026402	
5.1800	-90.000000	90.000000	-90.000000	-242.453270	828.044563	7.848720	26.489673	40.972385	45.000000	45.000000	15.701285	3223.861200	-1698.798294	26.109452	-147.581766	745.411430	161.630319	11.809814	5.264494	-45.000000	4.172229	34.939543	-14.024439	-45.000000	-3854.201572	1196.462564	11.252590	-159.114375	1808.289709	23.602552	6.854078	-23.018868	
5.1900	-90.000000	90.000000	-90.000000	-242.022475	828.040804	7.998539	26.530260	40.959778	45.000000	45.000000	15.650221	3223.768338	-1698.844126	26.060799	-147.983860	745.422497	162.277796	11.744479	5.269059	-45.000000	4.135500	34.953097	-14.019354	-45.000000	-3854.176242	1196.426129	11.254213	-159.000549	1808.328218	23.454153	6.883852	-23.002466	
5.2000	-90.000000	90.000000	-90.000000	-241.484457	828.031989	8.175577	26.575211	40.942632	45.000000	45.000000	15.593867	3223.671077	-1698.895738	25.997537	-148.392847	745.432657	162.979999	11.672879	5.277003	-45.000000	4.090242	34.964657	-14.007127	-45.000000	-3854.142081	1196.389946	11.251566	-158.849270	1808.360118	23.244469	6.932094	-22.981501	
5.2100	-90.000000	90.000000	-90.000000	-240.824257	828.016327	8.372578	26.624440	40.928224	45.000000	45.000000	15.508056	3223.543503	-1698.938114	25.954195	-148.795870	745.444832	163.742788	11.595962	5.276970	-45.000000	4.041996	34.954742	-13.969487	-45.000000	-3854.083308	1196.351529	11.223432	-158.674196	1808.369422	22.984859	7.000595	-22.954632	
5.2200	-90.000000	90.000000	-90.000000	-240.027746	827.991814	8.582114	26.680598	40.905283	45.000000	45.000000	15.417747	3223.416336	-1698.991807	25.891033	-149.206470	745.451320	164.572649	11.510849	5.280448	-45.000000	3.984758	34.939495	-13.919499	-45.000000	-3854.008481	1196.308801	11.195658	-158.478586	1808.383432	22.683422	7.082520	-22.925812	
5.2300	-90.000000	90.000000	-90.000000	-239.082195	827.956208	8.797653	26.742435	40.884586	45.000000	45.000000	15.296284	3223.264069	-1699.035952	25.844198	-149.610524	745.457608	165.473046	11.419627	5.273339	-45.000000	3.916135	34.909887	-13.854310	-45.000000	-3853.910741	1196.252633	11.161978	-158.274890	1808.396413	22.346677	7.176915	-22.894512	
5.2400	-90.000000	90.000000	-90.000000	-237.975979	827.907141	9.014093	26.812751	40.853314	45.000000	45.000000	15.176665	3223.118242	-1699.097593	25.768839	-150.024105	745.452475	166.449623	11.320536	5.269418	-45.000000	3.835637	34.877341	-13.775651	-45.000000	-3853.796595	1196.191035	11.132990	-158.067615	1808.431569	21.977078	7.279523	-22.863752	
5.2500	-90.000000	90.000000	-90.000000	-236.698345	827.842144	9.228115	26.889793	40.825112	45.000000	45.000000	15.033833	3222.955426	-1699.154188	25.697437	-150.431491	745.442928	167.512438	11.216578	5.253617	-45.000000	3.742136	34.853448	-13.688945	-45.000000	-3853.682890	1196.124034	11.102421	-157.861202	1808.490475	21.571777	7.389609	-22.833629	
5.2600	-90.000000	90.000000	-90.000000	-235.239830	827.758466	9.438014	26.975252	40.790806	45.000000	45.000000	14.892576	3222.795817	-1699.225047	25.600159	-150.844055	745.420893	168.670894	11.105800	5.237504	-45.000000	3.637485	34.854326	-13.600774	-45.000000	-3853.582135	1196.057530	11.074492	-157.651203	1808.580152	21.127228	7.505978	-22.803369	
5.2700	-90.000000	90.000000	-90.000000	-233.591935	827.652644	9.643525	27.066293	40.763970	45.000000	45.000000	14.724089	3222.613344	-1699.283542	25.512118	-151.245194	745.391139	169.929330	10.990999	5.207090	-45.000000	3.525043	34.877441	-13.511847	-45.000000	-3853.500320	1195.989239	11.035069	-157.435743	1808.689591	20.639539	7.630654	-22.770073	
5.2800	-90.000000	90.000000	-90.000000	-231.747780	827.519958	9.845321	27.164408	40.734949	45.000000	45.000000	14.551438	3222.422250	-1699.350045	25.409692	-151.646701	745.346550	171.287429	10.870289	5.173517	-45.000000	3.406628	34.918521	-13.420949	-45.000000	-3853.431088	1195.916514	10.978673	-157.214066	1808.804752	20.108736	7.765748	-22.729137	
5.2900	-90.000000	90.000000	-90.000000	-229.701974	827.353811	10.044619	27.267914	40.714247	45.000000	45.000000	14.360316	3222.205688	-1699.408757	25.309951	-152.038113	745.287335	172.744844	10.745976	5.128937	-45.000000	3.286240	34.981883	-13.333051	-45.000000	-3853.392441	1195.837589	10.888712	-156.984644	1808.912282	19.531616	7.912169	-22.676181	
